name ./resultDataOpenSim/trcMotMarkerGrf/sub06/grf-14-07.mot
datacolumns 19
datarows 17
range 1.58000000 1.64400000
endheader

                time	     ground_force_vx	     ground_force_vy	     ground_force_vz	     ground_force_px	     ground_force_py	     ground_force_pz	   l_ground_force_vx	   l_ground_force_vy	   l_ground_force_vz	   l_ground_force_px	   l_ground_force_py	   l_ground_force_pz	     ground_torque_x	     ground_torque_y	     ground_torque_z	   l_ground_torque_x	   l_ground_torque_y	   l_ground_torque_z	
          1.58000000	         78.13143668	        572.04092598	         -7.36783933	          0.93957288	          0.00000000	          0.07438019	          0.00000000	          0.00000000	          0.00000000	          0.00000000	          0.00000000	          0.00000000	          0.00000000	          2.06427655	          0.00000000	          0.00000000	          0.00000000	          0.00000000	
          1.58400000	         83.20382305	        585.62905126	         -8.10105509	          0.93981588	          0.00000000	          0.07402948	          0.00000000	          0.00000000	          0.00000000	          0.00000000	          0.00000000	          0.00000000	          0.00000000	          2.15869249	          0.00000000	          0.00000000	          0.00000000	          0.00000000	
          1.58800000	         88.26421171	        599.03598877	         -9.12517568	          0.94007247	          0.00000000	          0.07370685	          0.00000000	          0.00000000	          0.00000000	          0.00000000	          0.00000000	          0.00000000	          0.00000000	          2.25132582	          0.00000000	          0.00000000	          0.00000000	          0.00000000	
          1.59200000	         93.32557252	        612.16290291	        -10.35186852	          0.94035039	          0.00000000	          0.07341404	          0.00000000	          0.00000000	          0.00000000	          0.00000000	          0.00000000	          0.00000000	          0.00000000	          2.33896590	          0.00000000	          0.00000000	          0.00000000	          0.00000000	
          1.59600000	         98.43946059	        624.90913329	        -11.66844462	          0.94063951	          0.00000000	          0.07315157	          0.00000000	          0.00000000	          0.00000000	          0.00000000	          0.00000000	          0.00000000	          0.00000000	          2.41794750	          0.00000000	          0.00000000	          0.00000000	          0.00000000	
          1.60000000	        103.67275078	        637.16673483	        -12.95153464	          0.94091804	          0.00000000	          0.07291416	          0.00000000	          0.00000000	          0.00000000	          0.00000000	          0.00000000	          0.00000000	          0.00000000	          2.48541372	          0.00000000	          0.00000000	          0.00000000	          0.00000000	
          1.60400000	        109.08605230	        648.81415238	        -14.09114978	          0.94118106	          0.00000000	          0.07269242	          0.00000000	          0.00000000	          0.00000000	          0.00000000	          0.00000000	          0.00000000	          0.00000000	          2.53987125	          0.00000000	          0.00000000	          0.00000000	          0.00000000	
          1.60800000	        114.71813758	        659.72179803	        -15.01554560	          0.94143056	          0.00000000	          0.07247243	          0.00000000	          0.00000000	          0.00000000	          0.00000000	          0.00000000	          0.00000000	          0.00000000	          2.58096247	          0.00000000	          0.00000000	          0.00000000	          0.00000000	
          1.61200000	        120.57530545	        669.75235062	        -15.70233262	          0.94166367	          0.00000000	          0.07224343	          0.00000000	          0.00000000	          0.00000000	          0.00000000	          0.00000000	          0.00000000	          0.00000000	          2.60901682	          0.00000000	          0.00000000	          0.00000000	          0.00000000	
          1.61600000	        126.62310559	        678.75854179	        -16.17437609	          0.94187772	          0.00000000	          0.07200262	          0.00000000	          0.00000000	          0.00000000	          0.00000000	          0.00000000	          0.00000000	          0.00000000	          2.62505616	          0.00000000	          0.00000000	          0.00000000	          0.00000000	
          1.62000000	        132.78272968	        686.58167967	        -16.48670313	          0.94207283	          0.00000000	          0.07175110	          0.00000000	          0.00000000	          0.00000000	          0.00000000	          0.00000000	          0.00000000	          0.00000000	          2.63144737	          0.00000000	          0.00000000	          0.00000000	          0.00000000	
          1.62400000	        138.93856202	        693.05376691	        -16.70732368	          0.94227148	          0.00000000	          0.07148905	          0.00000000	          0.00000000	          0.00000000	          0.00000000	          0.00000000	          0.00000000	          0.00000000	          2.63273808	          0.00000000	          0.00000000	          0.00000000	          0.00000000	
          1.62800000	        144.95579002	        698.01484707	        -16.89657596	          0.94249352	          0.00000000	          0.07121842	          0.00000000	          0.00000000	          0.00000000	          0.00000000	          0.00000000	          0.00000000	          0.00000000	          2.63586803	          0.00000000	          0.00000000	          0.00000000	          0.00000000	
          1.63200000	        150.70796857	        701.33351427	        -17.09205984	          0.94274427	          0.00000000	          0.07094013	          0.00000000	          0.00000000	          0.00000000	          0.00000000	          0.00000000	          0.00000000	          0.00000000	          2.64912167	          0.00000000	          0.00000000	          0.00000000	          0.00000000	
          1.63600000	        156.11882080	        702.91354050	        -17.30021371	          0.94301984	          0.00000000	          0.07065312	          0.00000000	          0.00000000	          0.00000000	          0.00000000	          0.00000000	          0.00000000	          0.00000000	          2.67973290	          0.00000000	          0.00000000	          0.00000000	          0.00000000	
          1.64000000	        161.21902869	        702.69333684	        -17.49216883	          0.94330505	          0.00000000	          0.07035782	          0.00000000	          0.00000000	          0.00000000	          0.00000000	          0.00000000	          0.00000000	          0.00000000	          2.73070472	          0.00000000	          0.00000000	          0.00000000	          0.00000000	
          1.64400000	        166.19121164	        700.64196184	        -17.60931180	          0.94357867	          0.00000000	          0.07005516	          0.00000000	          0.00000000	          0.00000000	          0.00000000	          0.00000000	          0.00000000	          0.00000000	          2.79805538	          0.00000000	          0.00000000	          0.00000000	          0.00000000	
